<svg width="178" height="178" xmlns="http://www.w3.org/2000/svg" fill="none">

 <g>
  <title>Layer 1</title>
  <path id="svg_1" fill="#00c589" d="m120.5,121.5c-8.572,8.571 -19,12.714 -32.0001,12.714c-13,0 -23.4286,-4.143 -32.0001,-12.714c-5.7857,-5.786 -9.3571,-13 -11.2857,-21l-44.71422,0c2.21428,21.214 10.49992,38.643 24.85712,52.429c17.3571,16.571 38.3571,24.857 63.1429,24.857c24.7861,0 45.5001,-8.286 62.9281,-24.857c14.643,-13.786 22.929,-31.429 25.072,-52.429l-44.714,0c-1.929,8 -5.5,15.143 -11.286,21z"/>
  <path id="svg_2" fill="white" d="m56.7856,56.643c8.5714,-8.2858 19,-12.7143 31.7142,-12.7143c12.7142,0 23.1432,4.1428 31.7142,12.7143c7.714,7.7142 12.143,17.3571 12.714,28.7142l44.143,0c-0.571,-24.5714 -9.071,-45 -25.643,-60.7142c-17.071,-16.28576 -37.785,-24.57147 -62.9282,-24.57147c-25.1428,0 -46.0714,8.28571 -63.1428,24.57147c-16.28573,15.7142 -24.85712,35.8571 -25.35712,60.7142l44.14282,0c0.5715,-11.2857 4.7143,-21 12.7143,-28.7142l-0.0714,0z"/>
 </g>
</svg>